<svg xmlns="http://www.w3.org/2000/svg" xmlns:xlink="http://www.w3.org/1999/xlink" viewBox="0 0 100 100" preserveAspectRatio="xMidYMid" width="298" height="298" style="shape-rendering: auto; display: block; background: rgb(34, 34, 34);"><g><g transform="rotate(0 50 50)">
    <rect fill="#1a37d5" height="6" width="5" ry="3" rx="2.5" y="23" x="47.5">
      <animate repeatCount="indefinite" begin="-0.4164497657470068s" dur="0.4424778761061947s" keyTimes="0;1" values="1;0" attributeName="opacity"/>
    </rect>
  </g><g transform="rotate(21.176470588235293 50 50)">
    <rect fill="#1a37d5" height="6" width="5" ry="3" rx="2.5" y="23" x="47.5">
      <animate repeatCount="indefinite" begin="-0.3904216553878189s" dur="0.4424778761061947s" keyTimes="0;1" values="1;0" attributeName="opacity"/>
    </rect>
  </g><g transform="rotate(42.35294117647059 50 50)">
    <rect fill="#1a37d5" height="6" width="5" ry="3" rx="2.5" y="23" x="47.5">
      <animate repeatCount="indefinite" begin="-0.36439354502863097s" dur="0.4424778761061947s" keyTimes="0;1" values="1;0" attributeName="opacity"/>
    </rect>
  </g><g transform="rotate(63.529411764705884 50 50)">
    <rect fill="#1a37d5" height="6" width="5" ry="3" rx="2.5" y="23" x="47.5">
      <animate repeatCount="indefinite" begin="-0.338365434669443s" dur="0.4424778761061947s" keyTimes="0;1" values="1;0" attributeName="opacity"/>
    </rect>
  </g><g transform="rotate(84.70588235294117 50 50)">
    <rect fill="#1a37d5" height="6" width="5" ry="3" rx="2.5" y="23" x="47.5">
      <animate repeatCount="indefinite" begin="-0.3123373243102551s" dur="0.4424778761061947s" keyTimes="0;1" values="1;0" attributeName="opacity"/>
    </rect>
  </g><g transform="rotate(105.88235294117646 50 50)">
    <rect fill="#1a37d5" height="6" width="5" ry="3" rx="2.5" y="23" x="47.5">
      <animate repeatCount="indefinite" begin="-0.2863092139510672s" dur="0.4424778761061947s" keyTimes="0;1" values="1;0" attributeName="opacity"/>
    </rect>
  </g><g transform="rotate(127.05882352941177 50 50)">
    <rect fill="#1a37d5" height="6" width="5" ry="3" rx="2.5" y="23" x="47.5">
      <animate repeatCount="indefinite" begin="-0.2602811035918793s" dur="0.4424778761061947s" keyTimes="0;1" values="1;0" attributeName="opacity"/>
    </rect>
  </g><g transform="rotate(148.23529411764707 50 50)">
    <rect fill="#1a37d5" height="6" width="5" ry="3" rx="2.5" y="23" x="47.5">
      <animate repeatCount="indefinite" begin="-0.23425299323269133s" dur="0.4424778761061947s" keyTimes="0;1" values="1;0" attributeName="opacity"/>
    </rect>
  </g><g transform="rotate(169.41176470588235 50 50)">
    <rect fill="#1a37d5" height="6" width="5" ry="3" rx="2.5" y="23" x="47.5">
      <animate repeatCount="indefinite" begin="-0.2082248828735034s" dur="0.4424778761061947s" keyTimes="0;1" values="1;0" attributeName="opacity"/>
    </rect>
  </g><g transform="rotate(190.58823529411765 50 50)">
    <rect fill="#1a37d5" height="6" width="5" ry="3" rx="2.5" y="23" x="47.5">
      <animate repeatCount="indefinite" begin="-0.18219677251431549s" dur="0.4424778761061947s" keyTimes="0;1" values="1;0" attributeName="opacity"/>
    </rect>
  </g><g transform="rotate(211.76470588235293 50 50)">
    <rect fill="#1a37d5" height="6" width="5" ry="3" rx="2.5" y="23" x="47.5">
      <animate repeatCount="indefinite" begin="-0.15616866215512756s" dur="0.4424778761061947s" keyTimes="0;1" values="1;0" attributeName="opacity"/>
    </rect>
  </g><g transform="rotate(232.94117647058823 50 50)">
    <rect fill="#1a37d5" height="6" width="5" ry="3" rx="2.5" y="23" x="47.5">
      <animate repeatCount="indefinite" begin="-0.13014055179593964s" dur="0.4424778761061947s" keyTimes="0;1" values="1;0" attributeName="opacity"/>
    </rect>
  </g><g transform="rotate(254.11764705882354 50 50)">
    <rect fill="#1a37d5" height="6" width="5" ry="3" rx="2.5" y="23" x="47.5">
      <animate repeatCount="indefinite" begin="-0.1041124414367517s" dur="0.4424778761061947s" keyTimes="0;1" values="1;0" attributeName="opacity"/>
    </rect>
  </g><g transform="rotate(275.29411764705884 50 50)">
    <rect fill="#1a37d5" height="6" width="5" ry="3" rx="2.5" y="23" x="47.5">
      <animate repeatCount="indefinite" begin="-0.07808433107756378s" dur="0.4424778761061947s" keyTimes="0;1" values="1;0" attributeName="opacity"/>
    </rect>
  </g><g transform="rotate(296.47058823529414 50 50)">
    <rect fill="#1a37d5" height="6" width="5" ry="3" rx="2.5" y="23" x="47.5">
      <animate repeatCount="indefinite" begin="-0.05205622071837585s" dur="0.4424778761061947s" keyTimes="0;1" values="1;0" attributeName="opacity"/>
    </rect>
  </g><g transform="rotate(317.6470588235294 50 50)">
    <rect fill="#1a37d5" height="6" width="5" ry="3" rx="2.5" y="23" x="47.5">
      <animate repeatCount="indefinite" begin="-0.026028110359187926s" dur="0.4424778761061947s" keyTimes="0;1" values="1;0" attributeName="opacity"/>
    </rect>
  </g><g transform="rotate(338.8235294117647 50 50)">
    <rect fill="#1a37d5" height="6" width="5" ry="3" rx="2.5" y="23" x="47.5">
      <animate repeatCount="indefinite" begin="0s" dur="0.4424778761061947s" keyTimes="0;1" values="1;0" attributeName="opacity"/>
    </rect>
  </g><g/></g><!-- [ldio] generated by https://loading.io --></svg>